<svg width="88" height="47" viewBox="0 0 88 47" fill="none" xmlns="http://www.w3.org/2000/svg">
<g clip-path="url(#clip0_4_17)">
<path d="M38.9932 27.8916V29.0815L27.0745 46.9687H25.8974L17.394 41.129H13.6689L9.75799 46.9687H8.58083L0 41.0742V39.8843L26.5712 0.0313721H27.7483L36.3137 5.93377V7.12364L17.4405 35.4301V39.6964L29.2352 21.9971H30.4124L38.9777 27.8995L38.9932 27.8916Z" fill="#01F1A7"/>
<path d="M88 5.94154V7.14707L61.4288 47H60.2517L51.6786 41.0976V39.9077L70.5673 11.6013V7.33494L44.0968 47H42.9119L34.4162 41.0976V39.9077L53.1268 11.6013V7.33494L41.2468 25.7154H40.0697L31.5121 19.813V18.8266L43.5779 0H44.7551L53.2662 5.87109H56.9913L60.9022 0H62.0794L70.5905 5.87109H74.3156L78.2265 0H79.4037L87.9768 5.94154H88Z" fill="#01F1A7"/>
</g>
<defs>
<clipPath id="clip0_4_17">
<rect width="88" height="47" fill="white"/>
</clipPath>
</defs>
</svg>
