<svg width="476" height="634" viewBox="0 0 476 634" fill="none" xmlns="http://www.w3.org/2000/svg">
<path d="M370.993 1L371.702 0.294917L371.409 0H370.993V1ZM1 1V0H0V1H1ZM475 105.603H476V105.191L475.709 104.898L475 105.603ZM475 633V634H476V633H475ZM107.979 633L107.27 633.705L107.563 634H107.979V633ZM1 525.408H0V525.821L0.290876 526.113L1 525.408ZM370.993 0H1V2H370.993V0ZM475.709 104.898L371.702 0.294917L370.284 1.70508L474.291 106.308L475.709 104.898ZM476 633V105.603H474V633H476ZM107.979 634H475V632H107.979V634ZM0.290876 526.113L107.27 633.705L108.688 632.295L1.70912 524.703L0.290876 526.113ZM0 1V525.408H2V1H0Z" fill="white"/>
</svg>
