<svg xmlns="http://www.w3.org/2000/svg" xmlns:xlink="http://www.w3.org/1999/xlink" viewBox="0 0 1020.29 574.8"><defs><linearGradient id="Gradiente_sem_nome_403" x1="215.55" y1="366.72" x2="361.13" y2="114.57" gradientUnits="userSpaceOnUse"><stop offset="0" stop-color="#318cd4"/><stop offset="0.21" stop-color="#328fd5"/><stop offset="0.4" stop-color="#349ad7"/><stop offset="0.58" stop-color="#37acda"/><stop offset="0.75" stop-color="#3cc5df"/><stop offset="0.91" stop-color="#42e5e6"/><stop offset="1" stop-color="#46faea"/></linearGradient><linearGradient id="Gradiente_sem_nome_403-2" x1="401.69" y1="435.99" x2="470.62" y2="316.59" xlink:href="#Gradiente_sem_nome_403"/><linearGradient id="Gradiente_sem_nome_403-3" x1="338.98" y1="340.53" x2="366.11" y2="293.54" xlink:href="#Gradiente_sem_nome_403"/><linearGradient id="Gradiente_sem_nome_403-4" x1="1016.87" y1="841.31" x2="1173.53" y2="569.96" xlink:href="#Gradiente_sem_nome_403"/><linearGradient id="Gradiente_sem_nome_453" x1="617.76" y1="959.99" x2="660.88" y2="959.99" gradientUnits="userSpaceOnUse"><stop offset="0" stop-color="#b468c9"/><stop offset="0.22" stop-color="#b165c6"/><stop offset="0.42" stop-color="#a75abf"/><stop offset="0.6" stop-color="#9648b1"/><stop offset="0.78" stop-color="#7f2f9f"/><stop offset="0.95" stop-color="#610f87"/><stop offset="1" stop-color="#56037e"/></linearGradient><linearGradient id="Gradiente_sem_nome_453-2" x1="667.16" y1="959.99" x2="724.48" y2="959.99" xlink:href="#Gradiente_sem_nome_453"/><linearGradient id="Gradiente_sem_nome_453-3" x1="721.58" y1="959.99" x2="773.68" y2="959.99" xlink:href="#Gradiente_sem_nome_453"/><linearGradient id="Gradiente_sem_nome_453-4" x1="760.82" y1="959.99" x2="816.31" y2="959.99" xlink:href="#Gradiente_sem_nome_453"/><linearGradient id="Gradiente_sem_nome_453-5" x1="819.5" y1="959.99" x2="880.2" y2="959.99" xlink:href="#Gradiente_sem_nome_453"/><linearGradient id="Gradiente_sem_nome_463" x1="893.25" y1="959.99" x2="968.55" y2="959.99" gradientUnits="userSpaceOnUse"><stop offset="0" stop-color="#318dd4"/><stop offset="1" stop-color="#43ece7"/></linearGradient><linearGradient id="Gradiente_sem_nome_463-2" x1="957.34" y1="959.99" x2="1012.82" y2="959.99" xlink:href="#Gradiente_sem_nome_463"/><linearGradient id="Gradiente_sem_nome_463-3" x1="1016.3" y1="959.99" x2="1074.3" y2="959.99" xlink:href="#Gradiente_sem_nome_463"/><linearGradient id="Gradiente_sem_nome_463-4" x1="1070.53" y1="959.99" x2="1100.3" y2="959.99" xlink:href="#Gradiente_sem_nome_463"/><linearGradient id="Gradiente_sem_nome_463-5" x1="1089.86" y1="959.99" x2="1151.05" y2="959.99" xlink:href="#Gradiente_sem_nome_463"/><linearGradient id="Gradiente_sem_nome_463-6" x1="1140.41" y1="959.99" x2="1201.6" y2="959.99" xlink:href="#Gradiente_sem_nome_463"/><linearGradient id="Gradiente_sem_nome_463-7" x1="1197.54" y1="959.99" x2="1252.15" y2="959.99" xlink:href="#Gradiente_sem_nome_463"/><linearGradient id="Gradiente_sem_nome_445" x1="503.39" y1="526.85" x2="656.07" y2="526.85" gradientUnits="userSpaceOnUse"><stop offset="0" stop-color="#55027d"/><stop offset="0.21" stop-color="#580580"/><stop offset="0.39" stop-color="#621087"/><stop offset="0.56" stop-color="#732295"/><stop offset="0.73" stop-color="#8a3ba8"/><stop offset="0.89" stop-color="#a85bbf"/><stop offset="1" stop-color="#c277d4"/></linearGradient><linearGradient id="Gradiente_sem_nome_445-2" x1="471.66" y1="593.93" x2="536.16" y2="593.93" xlink:href="#Gradiente_sem_nome_445"/><linearGradient id="Gradiente_sem_nome_445-3" x1="509.28" y1="712.29" x2="674.67" y2="712.29" xlink:href="#Gradiente_sem_nome_445"/><linearGradient id="Gradiente_sem_nome_445-4" x1="1288.94" y1="765.95" x2="1454.33" y2="765.95" xlink:href="#Gradiente_sem_nome_445"/><linearGradient id="Gradiente_sem_nome_445-5" x1="1307.54" y1="951.39" x2="1460.22" y2="951.39" xlink:href="#Gradiente_sem_nome_445"/><linearGradient id="Gradiente_sem_nome_445-6" x1="1427.45" y1="884.3" x2="1491.95" y2="884.3" xlink:href="#Gradiente_sem_nome_445"/></defs><g id="tipo"><g id="tipo-2" data-name="tipo"><g id="L"><rect x="263.47" y="81.99" width="49.73" height="317.32" rx="11.63" style="fill:url(#Gradiente_sem_nome_403)"/><rect x="330.27" y="352.91" width="211.76" height="46.76" rx="11.63" style="fill:url(#Gradiente_sem_nome_403-2)"/><rect x="330.27" y="293.66" width="44.54" height="46.76" rx="11.63" style="fill:url(#Gradiente_sem_nome_403-3)"/></g><path id="M" d="M1229.88,774q.34-41.31.55-80.51.1-21.35-.08-42.69c-.13-12.39.19-25-2-37.24a30.11,30.11,0,0,0-4.54-12.09,23.72,23.72,0,0,0-6.19-5.94c-10.13-7.24-21.51-6-50.18-5.63-14.1.2-21.14.1-28.66.12q-14.28,0-28.55,0-17.68-.39-25.67,8l-.15.17a12.39,12.39,0,0,1-18.1.52l-.27-.25q-8.94-8.53-24.81-8.45H968.72c-25.06-.1-45,.72-52.15,6-9.62,7.09-8.77,22.75-8.73,33.35l.08,19.89.1,28.18.12,31.18.11,28.86.08,21.24,0,8.33c0,8,5.93,14.51,13.18,14.51H968c7.28,0,13.18-6.52,13.18-14.57l.05-105c0-8,5.88-14.55,13.15-14.57l26.76-.08c7.3,0,13.22,6.51,13.22,14.58V842.55c0,8.05,5.89,14.57,13.17,14.58l45.65,0c7.28,0,13.18-6.51,13.19-14.55l.26-180.82c0-8,5.91-14.56,13.18-14.56h26.61c7.27,0,13.16,6.51,13.18,14.55l.36,188.48a15.26,15.26,0,0,0,4.68,11.11l43.19,40.24c8.61,8,21.78,1.18,21.67-11.28q-.15-16.7-.08-35.89Q1229.53,815.33,1229.88,774Z" transform="translate(-471.66 -451.72)" style="fill:url(#Gradiente_sem_nome_403-4)"/></g><g id="lucas_marinho" data-name="lucas marinho"><path d="M617.76,984.62l15-49.26h14.78l-11.21,36.71h24.55a6.88,6.88,0,0,1-.91,1.58q-1,1.59-2.47,3.67c-1,1.4-2,2.79-3,4.19a29.15,29.15,0,0,1-2.66,3.11Z" transform="translate(-471.66 -451.72)" style="fill:url(#Gradiente_sem_nome_453)"/><path d="M670,956l6.09-20.63h14.6q-2.71,9.48-4.16,14.73c-1,3.5-1.69,6.12-2.18,7.86s-.77,2.83-.87,3.3a6.21,6.21,0,0,0-.14,1,15.29,15.29,0,0,0-.29,1.58,10,10,0,0,0-.1,1.4,7.73,7.73,0,0,0,1.5,5.06,4.3,4.3,0,0,0,3.34,1.81h3.77a6.72,6.72,0,0,0,3.43-.93,11.14,11.14,0,0,0,2.8-2.32,19.89,19.89,0,0,0,2.13-3c.61-1.06,1.11-2,1.5-2.89l8.41-27.6h14.69l-7,23q-1.93,6.4-3.92,11.29a35.27,35.27,0,0,1-4.54,8.22,16.33,16.33,0,0,1-14,6.79h-9a43.73,43.73,0,0,1-9.13-.79,14.58,14.58,0,0,1-5.8-2.46,9.09,9.09,0,0,1-3.09-4.33,19.24,19.24,0,0,1-.92-6.36c0-.68,0-1.36.05-2a22.61,22.61,0,0,1,.24-2.32c.32-1.61.69-3.21,1.11-4.79S669.44,958.1,670,956Z" transform="translate(-471.66 -451.72)" style="fill:url(#Gradiente_sem_nome_453-2)"/><path d="M721.58,961.85a28.87,28.87,0,0,1,1.59-9.2,32.17,32.17,0,0,1,4.35-8.55,25.53,25.53,0,0,1,6.43-6.28,13.69,13.69,0,0,1,7.73-2.46h32c-1.48,2.36-3,4.57-4.5,6.65a49.28,49.28,0,0,1-5.07,5.9H744a3.72,3.72,0,0,0-2.17.79,10.45,10.45,0,0,0-2.13,2.09,17.57,17.57,0,0,0-1.83,2.93,19.81,19.81,0,0,0-1.31,3.2c-.19.75-.35,1.44-.48,2.09a9.09,9.09,0,0,0-.2,1.72,10.38,10.38,0,0,0,.78,3.77,16,16,0,0,0,2,3.67,14,14,0,0,0,2.61,2.79,4.45,4.45,0,0,0,2.75,1.11h18.56c-1.22,2.11-2.58,4.26-4.06,6.46a34.92,34.92,0,0,1-5.22,6.09H747.1a42.88,42.88,0,0,1-9.33-1A22.19,22.19,0,0,1,729.6,980a18.74,18.74,0,0,1-5.8-6.93A24.28,24.28,0,0,1,721.58,962Z" transform="translate(-471.66 -451.72)" style="fill:url(#Gradiente_sem_nome_453-3)"/><path d="M802.48,984.62l-1.64-10.5a16.14,16.14,0,0,1-1.11,2.13c-.61,1.06-1.32,2.17-2.13,3.35s-1.59,2.26-2.37,3.25a6.53,6.53,0,0,1-1.74,1.77H760.82c.13-.5.2-.71.2-.65v-.28l27.83-42.75a6.46,6.46,0,0,1,.87-1.49,19.17,19.17,0,0,1,1.5-1.81,18.53,18.53,0,0,1,1.65-1.58,2.32,2.32,0,0,1,1.4-.7h13c.52,0,1,.34,1.4,1a11.79,11.79,0,0,1,1.11,2.51,29,29,0,0,1,.83,3.12c.22,1.08.43,2,.62,2.74l5.13,39.87Zm-17.3-12.45h15.66l-2.71-21.84-13,20.91Z" transform="translate(-471.66 -451.72)" style="fill:url(#Gradiente_sem_nome_453-4)"/><path d="M855.36,969v-.56a7,7,0,0,0-.19-1.54c-.13-.52-.42-.79-.87-.79H838.83a7.06,7.06,0,0,1-4.21-1.34,12.1,12.1,0,0,1-3.19-3.44,18.54,18.54,0,0,1-2-4.6,17.88,17.88,0,0,1-.72-4.93,14.61,14.61,0,0,1,1.06-5.06,25.39,25.39,0,0,1,2.81-5.39,19.58,19.58,0,0,1,3.86-4.28,6.92,6.92,0,0,1,4.35-1.72H880.2c-1.22,2.11-2.58,4.22-4.06,6.32a69.87,69.87,0,0,1-5,6.32H845.6c-.58,0-1.08.47-1.5,1.4a5.82,5.82,0,0,0-.63,2.23v.46c0,.06.1.2.29.42a6.49,6.49,0,0,0,.48.51,3.06,3.06,0,0,0,.87.7,2.57,2.57,0,0,0,.68.32h14.69a6.79,6.79,0,0,1,4.4,1.44,11,11,0,0,1,2.9,3.63,17.54,17.54,0,0,1,1.59,4.69,24.06,24.06,0,0,1,.49,4.65V969a16.26,16.26,0,0,1-.92,5.15,20.91,20.91,0,0,1-2.47,5.07,16.91,16.91,0,0,1-3.47,3.86,6.48,6.48,0,0,1-4.07,1.53H819.5a26.77,26.77,0,0,1,1.59-3q1.21-2.05,2.56-4.14t2.47-3.72c.74-1.08,1.21-1.62,1.4-1.62h26.29c.78,0,1.23-.28,1.36-.84a8.42,8.42,0,0,0,.19-1.77Z" transform="translate(-471.66 -451.72)" style="fill:url(#Gradiente_sem_nome_453-5)"/><path d="M938.78,984.62l8.31-27.7-21,27.7H920.7l-4.25-27.7-8.31,27.7H893.25l15-49.26h18.66l4,24.72,18.95-24.72h18.75l-15,49.26Z" transform="translate(-471.66 -451.72)" style="fill:url(#Gradiente_sem_nome_463)"/><path d="M999,984.62l-1.65-10.5a16.14,16.14,0,0,1-1.11,2.13c-.61,1.06-1.32,2.17-2.12,3.35s-1.6,2.26-2.37,3.25a6.84,6.84,0,0,1-1.74,1.77H957.34c.12-.5.19-.71.19-.65v-.28l27.84-42.75a6.46,6.46,0,0,1,.87-1.49,19.17,19.17,0,0,1,1.5-1.81,17.2,17.2,0,0,1,1.64-1.58,2.34,2.34,0,0,1,1.4-.7h13a1.74,1.74,0,0,1,1.41,1,12.89,12.89,0,0,1,1.11,2.51,31.57,31.57,0,0,1,.82,3.12c.22,1.08.43,2,.63,2.74l5.12,39.87Zm-17.31-12.45h15.66l-2.7-21.84-13,20.91Z" transform="translate(-471.66 -451.72)" style="fill:url(#Gradiente_sem_nome_463-2)"/><path d="M1031.28,935.36h34.51a6.86,6.86,0,0,1,4.5,1.4,8.81,8.81,0,0,1,2.56,3.53,17.83,17.83,0,0,1,1.16,4.64,41.67,41.67,0,0,1,.29,4.65,14.42,14.42,0,0,1-1.94,7.81,15.07,15.07,0,0,1-4.88,4.88,21.09,21.09,0,0,1-6.43,2.6,50.27,50.27,0,0,1-6.57,1.07l15.18,18.68H1053L1037.18,967l-.87.74-5.12,16.92H1016.3Zm27.94,14.22a3.52,3.52,0,0,0-.2-1.25c-.13-.34-.51-.51-1.15-.51H1042.3L1038,962.31l6.77-8.27h12.37a1.68,1.68,0,0,0,1.64-1.25,6.12,6.12,0,0,0,.49-2.19Z" transform="translate(-471.66 -451.72)" style="fill:url(#Gradiente_sem_nome_463-3)"/><path d="M1085.41,935.36h14.89l-14.89,49.26h-14.88Z" transform="translate(-471.66 -451.72)" style="fill:url(#Gradiente_sem_nome_463-4)"/><path d="M1104.84,935.36h18.66l4.44,27.7,8.41-27.7h14.7l-14.89,49.26h-18.75l-4.35-27.7-8.32,27.7h-14.88Z" transform="translate(-471.66 -451.72)" style="fill:url(#Gradiente_sem_nome_463-5)"/><path d="M1155.39,935.36h14.79l-8.7,28.81,7.93-9.76h11.7l5.8-19h14.69l-14.89,49.26H1172l5.32-17.66h-16.73l-5.31,17.66h-14.89Z" transform="translate(-471.66 -451.72)" style="fill:url(#Gradiente_sem_nome_463-6)"/><path d="M1248.77,968a34.61,34.61,0,0,1-5.7,8.51,27.85,27.85,0,0,1-7.69,5.9,19.13,19.13,0,0,1-8.94,2.23h-9.08a34.82,34.82,0,0,1-7.88-.84,16.45,16.45,0,0,1-6.29-2.83,13.28,13.28,0,0,1-4.15-5.44,21.66,21.66,0,0,1-1.5-8.64c0-.75,0-1.52.1-2.33s.16-1.64.29-2.5a31.69,31.69,0,0,1,2.8-9.81,35.91,35.91,0,0,1,5.51-8.55,27.75,27.75,0,0,1,7.35-6,16.43,16.43,0,0,1,8.12-2.28h11.5q8.79,0,13.87,4t5.07,13.2c0,.86,0,1.73-.09,2.6s-.16,1.8-.29,2.79A32.67,32.67,0,0,1,1248.77,968Zm-36.44-6.6v.56a12.54,12.54,0,0,0,.53,3.49,12.09,12.09,0,0,0,1.5,3.3,9.62,9.62,0,0,0,2.17,2.41,4.29,4.29,0,0,0,2.66.93h6.38a4.91,4.91,0,0,0,2.08-.79,21.46,21.46,0,0,0,3-2.09,23.59,23.59,0,0,0,3-2.93,15.16,15.16,0,0,0,2.18-3.2c.19-.44.37-.82.53-1.16a2.16,2.16,0,0,0,.24-.89l.39-.93a2,2,0,0,1,0-.55,1.3,1.3,0,0,0,0-.28c.07-.5.12-1,.15-1.54s0-1.06,0-1.62a18.71,18.71,0,0,0-.24-3,7.92,7.92,0,0,0-.92-2.65,5,5,0,0,0-1.89-1.85,6.16,6.16,0,0,0-3.14-.7h-7.63a5.56,5.56,0,0,0-2.62.79,14.59,14.59,0,0,0-2.85,2.09,21.79,21.79,0,0,0-2.61,2.93,16,16,0,0,0-1.88,3.2c-.26.75-.48,1.44-.68,2.09a11.4,11.4,0,0,0-.38,1.72C1212.36,960.8,1212.33,961,1212.33,961.38Z" transform="translate(-471.66 -451.72)" style="fill:url(#Gradiente_sem_nome_463-7)"/></g></g><g id="itens"><g id="all"><path d="M647.37,463l-1.28-1.35a31.77,31.77,0,0,0-44.91-1.24l-96.89,91.7a2.89,2.89,0,0,0-.18,4L543.42,601a2.89,2.89,0,0,0,4.16.19l98.55-93.27A31.76,31.76,0,0,0,647.37,463Z" transform="translate(-471.66 -451.72)" style="fill:url(#Gradiente_sem_nome_445)"/><path d="M501.43,562.84a6.56,6.56,0,0,0-7.17-1.85,34.15,34.15,0,0,0,11.05,66.28,33.61,33.61,0,0,0,30.23-19.12,6.46,6.46,0,0,0-1-7Z" transform="translate(-471.66 -451.72)" style="fill:url(#Gradiente_sem_nome_445-2)"/><path d="M663.34,793.76h0c-14.05,12.31-35.71,10.57-48.38-3.89L518.09,679.29c-12.66-14.46-11.54-36.16,2.52-48.47h0c14-12.31,35.71-10.57,48.38,3.89l96.87,110.58C678.52,759.75,677.4,781.45,663.34,793.76Z" transform="translate(-471.66 -451.72)" style="fill:url(#Gradiente_sem_nome_445-3)"/><path d="M1300.27,684.48h0c14-12.31,35.71-10.57,48.38,3.89L1445.52,799c12.66,14.46,11.54,36.16-2.52,48.47h0c-14,12.31-35.71,10.57-48.38-3.89L1297.75,733C1285.09,718.49,1286.21,696.79,1300.27,684.48Z" transform="translate(-471.66 -451.72)" style="fill:url(#Gradiente_sem_nome_445-4)"/><path d="M1316.24,1015.24l1.28,1.35a31.77,31.77,0,0,0,44.91,1.23l96.89-91.69a2.89,2.89,0,0,0,.18-4l-39.31-44.88a2.9,2.9,0,0,0-4.16-.2l-98.55,93.28A31.76,31.76,0,0,0,1316.24,1015.24Z" transform="translate(-471.66 -451.72)" style="fill:url(#Gradiente_sem_nome_445-5)"/><path d="M1462.18,915.39a6.57,6.57,0,0,0,7.17,1.86,34.15,34.15,0,0,0-11-66.28,33.61,33.61,0,0,0-30.23,19.12,6.46,6.46,0,0,0,1,7Z" transform="translate(-471.66 -451.72)" style="fill:url(#Gradiente_sem_nome_445-6)"/></g></g></svg>